<svg width="25" height="24" viewBox="0 0 25 24" fill="none" xmlns="http://www.w3.org/2000/svg">
<path d="M3.248 17.401L9.356 12.205V14.773H21.992V20.029H9.356V22.597L3.248 17.401Z" fill="#0F0F0F"/>
<path d="M8.912 13.177V15.217H21.548V19.573H8.912V21.613L3.944 17.389L8.912 13.165M9.812 11.221L2.552 17.389L9.812 23.557V20.461H22.448V14.305H9.812V11.209V11.221Z" fill="#787878"/>
<path d="M15.644 9.22899H3.008V3.973H15.644V1.405L21.752 6.60099L15.644 11.797V9.22899Z" fill="#0F0F0F"/>
<path d="M16.088 2.37698L21.056 6.60098L16.088 10.825V8.78497H3.452V4.42898H16.088V2.38898M15.188 0.444983V3.54098H2.552V9.69697H15.188V12.793L22.448 6.62498L15.188 0.432983V0.444983Z" fill="#787878"/>
</svg>
