<svg width="24" height="24" viewBox="0 0 24 24" fill="none" xmlns="http://www.w3.org/2000/svg">
<path d="M10 2C4.75591 2 0.5 5.36068 0.5 9.50212C0.5 11.3692 1.37589 13.0778 2.80201 14.3904L0.5 18L5.94622 16.2801C7.17021 16.744 8.54019 17.0042 10 17.0042C15.2441 17.0042 19.5 13.6436 19.5 9.50212C19.5 5.36068 15.2441 2 10 2Z" fill="#0F0F0F" stroke="#787878" stroke-width="0.9" stroke-linejoin="round"/>
<path d="M17 11C20.5927 11 23.5 13.3101 23.5 16.1589C23.5 17.4396 22.8973 18.6126 21.9164 19.5223L23.5 22L19.7655 20.815C18.9264 21.1262 17.9927 21.3177 17 21.3177C13.4073 21.3177 10.5 19.0076 10.5 16.1589C10.5 13.3101 13.4073 11 17 11Z" fill="#0F0F0F" stroke="#787878" stroke-width="0.9" stroke-linejoin="round"/>
</svg>
