<svg width="30" height="30" viewBox="0 0 30 30" fill="none" xmlns="http://www.w3.org/2000/svg">
<g id="Group 1">
<path id="Vector" d="M20.5381 28.25L20.5381 28.25C18.8109 28.999 16.9669 29.375 15 29.375C13.0331 29.375 11.1891 28.999 9.46187 28.25L9.46184 28.25C7.72454 27.4968 6.19469 26.4578 4.86841 25.1315L4.86839 25.1315C3.54213 23.8053 2.5032 22.2754 1.74989 20.5381L1.17647 20.7867L1.74988 20.5381C1.00094 18.8109 0.625 16.9669 0.625 15C0.625 13.0331 1.00094 11.1891 1.74988 9.46185C2.5034 7.72407 3.5402 6.19397 4.86184 4.86762C6.18294 3.54181 7.71004 2.5031 9.44715 1.74988C11.1744 1.00094 13.0184 0.625 14.9853 0.625C16.9522 0.625 18.7988 1.00094 20.5313 1.75013L20.7793 1.17647L20.5313 1.75013C22.2735 2.5035 23.8056 3.54241 25.1315 4.86839L25.1315 4.86841C26.4578 6.19469 27.4968 7.72454 28.25 9.46184L28.25 9.46187C28.999 11.1891 29.375 13.0331 29.375 15C29.375 16.9669 28.999 18.8109 28.25 20.5381L28.25 20.5381C27.4968 22.2755 26.4579 23.8053 25.1315 25.1315L25.1315 25.1315C23.8053 26.4579 22.2755 27.4968 20.5381 28.25ZM30 15C30 12.951 29.6078 11.022 28.8235 9.21322L9.21322 28.8235C11.022 29.6078 12.951 30 15 30C17.049 30 18.978 29.6078 20.7867 28.8235C22.5956 28.0392 24.1912 26.9559 25.5735 25.5735C26.9559 24.1912 28.0392 22.5956 28.8235 20.7867C29.6078 18.978 30 17.049 30 15Z" stroke="white" stroke-width="1.25"/>
<path id="Vector_2" d="M15.0146 11.7525L14.4597 10.7422C14.1161 10.1168 13.6739 9.62576 13.1336 9.25697C12.6201 8.90651 12.0194 8.72434 11.3081 8.72434C10.5327 8.72434 9.86988 8.90158 9.30091 9.24044C8.72341 9.58441 8.27229 10.0553 7.94191 10.6646L7.9419 10.6646C7.61518 11.2671 7.44318 11.9726 7.44318 12.7981C7.44318 13.523 7.57928 14.2336 7.85472 14.9335L7.85473 14.9335C8.13724 15.6514 8.52333 16.3483 9.01623 17.0242L8.51419 17.3903L9.01623 17.0242C9.5174 17.7115 10.0787 18.3589 10.7007 18.9665L10.7007 18.9666C11.3302 19.5816 11.9778 20.1445 12.6435 20.6557L12.6435 20.6558C13.3131 21.1701 13.9511 21.6246 14.5575 22.0199C14.6863 22.0933 14.82 22.167 14.9584 22.2409C14.9887 22.257 15.0128 22.2682 15.031 22.2758C15.0415 22.2705 15.0543 22.2636 15.0695 22.2546C15.1949 22.1801 15.3123 22.1064 15.4216 22.0335L15.4273 22.0298L15.4273 22.0298C16.0366 21.6332 16.6758 21.1741 17.3451 20.6515L15.0146 11.7525ZM15.0146 11.7525L15.5585 10.7362M15.0146 11.7525L15.5585 10.7362M22.1397 14.9216C22.4188 14.2282 22.5568 13.5216 22.5568 12.7981C22.5568 11.9726 22.3848 11.2672 22.0581 10.6646C21.7277 10.0553 21.2766 9.58441 20.6991 9.24045L22.1397 14.9216ZM22.1397 14.9216C21.8519 15.6361 21.4627 16.3319 20.9688 17.0092L20.9688 17.0093C20.4676 17.6967 19.9063 18.3441 19.2844 18.9517L22.1397 14.9216ZM15.5585 10.7362C15.891 10.1149 16.3286 9.62617 16.8719 9.25826M15.5585 10.7362L16.8719 9.25826M16.8719 9.25826C17.3927 8.90562 17.9923 8.72434 18.6918 8.72434M16.8719 9.25826L18.6918 8.72434M18.6918 8.72434C19.4673 8.72434 20.1301 8.90157 20.6991 9.24043L18.6918 8.72434ZM19.2844 18.9517C18.6538 19.5678 18.0073 20.1342 17.3452 20.6515L19.2844 18.9517ZM7.39353 10.3673L7.39248 10.3667L7.39353 10.3673Z" stroke="white" stroke-width="1.25"/>
</g>
</svg>
