<svg width="25" height="24" viewBox="0 0 25 24" fill="none" xmlns="http://www.w3.org/2000/svg">
<path d="M21.524 6.34799H3.42801V23.412H21.524V6.34799Z" fill="#0F0F0F"/>
<path d="M21.08 6.792V22.956H3.88401V6.792H21.08ZM21.98 5.892H2.98401V23.856H21.98V5.892Z" fill="#787878"/>
<path d="M15.836 12.348H9.392V23.4119H15.836V12.348Z" fill="#0F0F0F"/>
<path d="M15.392 12.792V22.956H9.848V12.792H15.392ZM16.292 11.892H8.948V23.856H16.292V11.892Z" fill="#787878"/>
<path d="M23.504 1.66797H1.604V6.69596H23.504V1.66797Z" fill="#0F0F0F"/>
<path d="M23.06 2.12397V6.25196H2.06V2.12397H23.06ZM23.96 1.22397H1.16V7.15196H23.96V1.22397Z" fill="#787878"/>
<path d="M12.488 1.22397V7.13996" stroke="#787878" stroke-width="0.899999" stroke-miterlimit="10"/>
<path d="M18.14 1.22397V7.13996" stroke="#787878" stroke-width="0.899999" stroke-miterlimit="10"/>
<path d="M6.82401 1.22397V7.13996" stroke="#787878" stroke-width="0.899999" stroke-miterlimit="10"/>
</svg>
